<svg width="305" height="97" viewBox="0 0 305 97" fill="none" xmlns="http://www.w3.org/2000/svg">
<path d="M43.9376 56.7682C44.9119 59.9203 45.8862 63.6456 46.8605 67.9441L29.0937 73.3887C23.9929 62.3275 19.7518 51.1516 16.3131 39.9184C14.1352 32.8116 12.1293 25.4184 10.4099 17.7958C16.3131 15.618 22.6747 13.4974 29.5522 11.4342L34.1945 10.0014C44.1668 7.25037 52.0759 7.02112 58.0364 9.37092C63.9969 11.7207 68.1234 16.5923 70.4158 23.9856C72.651 31.2642 71.8486 37.6259 67.9514 43.1278C64.0542 48.6298 57.406 52.8136 48.0068 55.6792C47.0324 55.9658 45.7143 56.3097 43.9376 56.7682ZM43.3645 38.1417C46.0008 37.282 47.9494 36.1931 49.153 34.8749C50.3566 33.5567 50.6431 31.8946 50.0127 29.8887C49.3822 27.9401 48.2933 26.7365 46.6313 26.3927C44.9692 26.0488 42.7913 26.2207 40.155 27.0231C37.7479 27.7682 35.9712 28.3413 34.8249 28.7998L34.8822 28.9144C35.3981 31.2069 36.0285 33.614 36.8309 36.1357C37.2894 37.7405 37.6905 38.8867 37.9771 39.6891C39.1807 39.4026 41.0147 38.8867 43.3645 38.1417Z" fill="#393842"/>
<path d="M144.75 67.2555C141.368 65.3642 138.789 62.6132 136.955 59.0025C135.121 55.3919 134.262 51.1508 134.262 46.1646C134.262 41.2357 135.179 36.9373 136.955 33.384C138.732 29.8306 141.311 27.0796 144.75 25.1883C148.131 23.297 152.143 22.3227 156.785 22.3227C161.256 22.3227 165.153 23.2397 168.362 25.131C168.362 19.5144 168.42 13.7832 168.592 7.99463H188.422C188.823 16.2476 189.052 24.3859 189.052 32.3523C189.052 45.133 188.536 57.2832 187.447 68.7456H169.681L169.337 65.7081C165.783 68.631 161.657 70.1211 156.843 70.1211C152.143 70.1211 148.131 69.1468 144.75 67.2555ZM166.528 52.5836C167.732 51.1508 168.362 49.0302 168.362 46.1646C168.362 43.3563 167.732 41.2357 166.528 39.8603C165.325 38.4848 163.605 37.7397 161.485 37.7397C159.364 37.7397 157.645 38.4274 156.441 39.8603C155.238 41.2931 154.607 43.4136 154.607 46.1646C154.607 49.0302 155.238 51.1508 156.441 52.5836C157.645 54.0164 159.364 54.7041 161.485 54.7041C163.605 54.7041 165.325 54.0164 166.528 52.5836Z" fill="#393842"/>
<path d="M204.068 69.1476C200.687 67.2563 198.108 64.5053 196.274 60.8946C194.44 57.284 193.58 53.0428 193.58 48.0567C193.58 43.1278 194.497 38.8294 196.274 35.276C198.05 31.7227 200.629 28.9717 204.068 27.0804C207.45 25.1891 211.462 24.2148 216.104 24.2148C220.574 24.2148 224.471 25.1318 227.681 27.0231C227.681 21.4065 227.738 15.6753 227.91 9.88672H247.74C248.141 18.1397 248.371 26.278 248.371 34.2444C248.371 47.0251 247.855 59.1753 246.766 70.6377H228.999L228.655 67.6002C225.102 70.5231 220.975 72.0132 216.161 72.0132C211.462 72.0132 207.45 71.0389 204.068 69.1476ZM225.847 54.4757C227.05 53.0429 227.681 50.9223 227.681 48.0567C227.681 45.2484 227.05 43.1278 225.847 41.7523C224.643 40.3768 222.924 39.6318 220.803 39.6318C218.683 39.6318 216.963 40.3195 215.76 41.7523C214.556 43.1851 213.926 45.3057 213.926 48.0567C213.926 50.9223 214.556 53.0429 215.76 54.4757C216.963 55.9085 218.683 56.5962 220.803 56.5962C222.924 56.5962 224.643 55.9085 225.847 54.4757Z" fill="#393842"/>
<path d="M251.981 92.0153C249.058 90.6971 246.708 89.2643 244.932 87.8888L251.064 72.4145C252.726 73.5607 254.56 74.5924 256.738 75.624C258.859 76.6556 261.036 77.458 263.157 78.0311C264.418 78.375 265.679 78.6615 266.94 78.8908C269.06 79.1773 270.837 79.0054 272.384 78.375C273.932 77.6872 275.192 76.369 276.281 74.3631C274.333 74.707 272.155 74.8216 269.748 74.6497C267.341 74.4777 264.934 74.0192 262.412 73.3315C256.451 71.6694 252.898 68.5173 251.694 63.875C250.491 59.29 250.892 53.5014 252.783 46.624C253.758 43.2425 255.534 38.1418 258.228 31.3789L276.109 36.4224C274.963 39.9184 273.932 43.1852 273.072 46.2228C272.212 49.2603 271.696 51.6101 271.467 53.3295C271.238 54.9916 271.295 56.2524 271.639 57.0548C271.983 57.8572 272.556 58.4876 273.416 58.8888C274.046 59.2327 274.677 59.4619 275.307 59.6339C277.026 60.0924 278.918 60.1497 280.924 59.6912C282.987 52.0686 284.764 45.2485 286.196 39.2307L304.938 44.5034C303.906 50.0054 302.53 55.7939 300.811 61.9263C299.493 66.6833 298.003 71.4402 296.398 76.1398C293.303 85.2524 288.775 91.3275 282.815 94.3651C276.855 97.4599 269.805 97.8038 261.61 95.5113C258.056 94.537 254.904 93.3335 251.981 92.0153Z" fill="#393842"/>
<path d="M15.912 31.3781C13.6195 37.052 8.80528 40.4334 5.1373 38.9433C1.46931 37.4532 0.323068 31.6646 2.61556 25.9907C4.90805 20.3168 13.7914 12.6369 17.4594 14.1271C21.1274 15.6172 18.1472 25.7041 15.912 31.3781Z" fill="#393842" stroke="#F4F4F4" stroke-width="2.86561" stroke-miterlimit="10"/>
<path d="M59.8703 16.361C65.2003 19.3986 71.0462 19.0547 72.9948 15.616C74.9434 12.1772 72.2498 6.96182 66.9197 3.92427C61.5897 0.886721 49.898 0.370908 47.892 3.80964C45.8861 7.24838 54.5403 13.3235 59.8703 16.361Z" fill="#393842" stroke="#F4F4F4" stroke-width="2.86561" stroke-miterlimit="10"/>
<path d="M112.368 39.2298C112.368 45.5342 105.147 53.8445 96.2636 53.8445C87.3802 53.8445 80.1588 45.5342 80.1588 39.2298C80.1588 32.9255 87.3802 27.8247 96.2636 27.8247C105.147 27.8247 112.368 32.9255 112.368 39.2298Z" fill="#393842" stroke="#F4F4F4" stroke-width="2.86561" stroke-miterlimit="10"/>
<path d="M68.066 61.2386C68.066 61.2386 85.2597 74.9935 97.238 47.2544" stroke="#383741" stroke-width="11.4625" stroke-miterlimit="10" stroke-linecap="round" stroke-linejoin="round"/>
<path d="M126.123 59.0027C126.123 59.0027 111.165 75.9671 95.3467 50.979" stroke="#383741" stroke-width="11.4625" stroke-miterlimit="10" stroke-linecap="round" stroke-linejoin="round"/>
</svg>
