<svg width="311" height="98" viewBox="0 0 311 98" fill="none" xmlns="http://www.w3.org/2000/svg">
<path d="M48.9716 57.7281C49.9459 60.8803 50.9203 64.6056 51.8946 68.904L34.1278 74.3487C29.027 63.2874 24.7859 52.1115 21.3471 40.8783C19.2266 33.7716 17.2206 26.4356 15.444 18.7558C21.3471 16.5779 27.7088 14.4574 34.5863 12.3941L39.2286 10.9613C49.2009 8.21033 57.11 7.98108 63.0705 10.3309C69.0309 12.6807 73.1574 17.5522 75.4499 24.9455C77.6851 32.2242 76.8827 38.5858 72.9855 44.0878C69.1456 49.5325 62.4973 53.7163 53.0408 56.6392C52.1238 56.9257 50.8056 57.2696 48.9716 57.7281ZM48.4558 39.1016C51.0922 38.242 53.0408 37.153 54.2444 35.8348C55.4479 34.5167 55.7345 32.8546 55.1041 30.8487C54.4736 28.9001 53.3847 27.6965 51.7226 27.3526C50.0606 27.0661 47.94 27.238 45.2463 28.0404C42.8392 28.7281 41.0626 29.3586 39.9163 29.8171L39.9736 29.9317C40.4894 32.2242 41.1199 34.6313 41.9222 37.153C42.3807 38.7578 42.7819 39.904 43.0685 40.7064C44.272 40.3625 46.106 39.8467 48.4558 39.1016Z" fill="#393842"/>
<path d="M114.652 63.6324C112.875 65.5237 110.64 66.9565 108.061 67.9882C105.424 69.0198 102.673 69.5356 99.7504 69.5356C93.446 69.5356 89.0903 67.0712 86.5686 62.1423C84.0468 57.2135 82.8433 50.5079 82.8433 42.083C82.8433 37.0395 83.2444 30.8498 84.1041 23.5139H103.017C102.903 27.4111 102.788 30.7925 102.788 33.6008C102.788 38.7589 103.017 42.4842 103.418 44.834C103.877 47.1838 104.45 48.6739 105.252 49.3044C106.055 49.9348 107.201 50.2214 108.748 50.2214C110.525 50.2214 112.302 49.7056 114.021 48.6166C113.907 44.0316 113.906 40.5929 113.906 38.2431C113.906 32.5119 114.021 27.583 114.25 23.4565H134.424C134.883 28.9585 135.112 34.6897 135.112 40.6502C135.112 49.7056 134.539 58.9901 133.335 68.504H115.053L114.652 63.6324Z" fill="#393842"/>
<path d="M149.841 68.216C146.46 66.3246 143.881 63.5737 142.047 59.963C140.213 56.3523 139.353 52.1112 139.353 47.125C139.353 42.1962 140.27 37.8978 142.047 34.3444C143.823 30.791 146.402 28.0401 149.841 26.1488C153.223 24.2575 157.234 23.2831 161.877 23.2831C166.347 23.2831 170.244 24.2001 173.454 26.0914C173.454 20.4748 173.511 14.7436 173.683 8.95508H193.513C193.914 17.208 194.144 25.3464 194.144 33.3128C194.144 46.0934 193.628 58.2436 192.539 69.7061H174.772L174.428 66.6685C170.875 69.5914 166.748 71.0816 161.934 71.0816C157.234 71.0816 153.223 70.1073 149.841 68.216ZM171.62 53.544C172.823 52.1112 173.454 49.9906 173.454 47.125C173.454 44.3167 172.823 42.1962 171.62 40.8207C170.416 39.4452 168.697 38.7001 166.576 38.7001C164.456 38.7001 162.736 39.3879 161.533 40.8207C160.329 42.2535 159.699 44.374 159.699 47.125C159.699 49.9906 160.329 52.1112 161.533 53.544C162.736 54.9768 164.456 55.6646 166.576 55.6646C168.697 55.6646 170.416 54.9195 171.62 53.544Z" fill="#393842"/>
<path d="M209.159 70.1076C205.778 68.2162 203.199 65.4653 201.365 61.8546C199.531 58.2439 198.671 54.0028 198.671 49.0166C198.671 44.0878 199.588 39.7894 201.365 36.236C203.142 32.6826 205.778 29.9317 209.159 28.0404C212.541 26.1491 216.553 25.1747 221.195 25.1747C225.665 25.1747 229.562 26.0917 232.772 27.983C232.772 22.3664 232.829 16.6352 233.001 10.8467H252.831C253.232 19.0996 253.462 27.238 253.462 35.2044C253.462 47.985 252.946 60.1352 251.857 71.5977H234.09L233.746 68.5601C230.193 71.483 226.066 72.9732 221.252 72.9732C216.553 72.9732 212.541 71.9989 209.159 70.1076ZM230.938 55.4356C232.142 54.0028 232.772 51.8823 232.772 49.0166C232.772 46.2083 232.142 44.0878 230.938 42.7123C229.734 41.3368 228.015 40.5917 225.894 40.5917C223.774 40.5917 222.055 41.2795 220.851 42.7123C219.647 44.1451 219.017 46.2657 219.017 49.0166C219.017 51.8823 219.647 54.0028 220.851 55.4356C222.055 56.8684 223.774 57.5562 225.894 57.5562C228.015 57.5562 229.734 56.8684 230.938 55.4356Z" fill="#393842"/>
<path d="M257.072 92.9752C254.149 91.6571 251.8 90.2242 250.023 88.8488L256.155 73.3744C257.817 74.5207 259.651 75.5523 261.829 76.5839C263.95 77.6155 266.128 78.4179 268.248 78.991C269.509 79.3349 270.77 79.6215 272.031 79.8507C274.151 80.1373 275.928 79.9654 277.476 79.3349C279.023 78.6472 280.284 77.329 281.373 75.3231C279.424 75.6669 277.246 75.7816 274.839 75.6096C272.432 75.4377 270.025 74.9792 267.503 74.2914C261.543 72.6294 257.989 69.4772 256.786 64.8349C255.582 60.2499 255.983 54.4614 257.875 47.5839C258.849 44.2025 260.626 39.1017 263.319 32.3389L281.201 37.3823C280.055 40.8784 279.023 44.1452 278.163 47.1827C277.304 50.2203 276.788 52.5701 276.559 54.2895C276.329 55.9515 276.387 57.2124 276.731 58.0148C277.074 58.8171 277.648 59.4476 278.507 59.8487C279.138 60.1926 279.768 60.4219 280.399 60.5938C282.118 61.0523 284.009 61.1096 286.015 60.6511C288.078 53.0286 289.855 46.2084 291.288 40.1906L310.029 45.4634C308.997 50.9653 307.622 56.7539 305.902 62.8863C304.584 67.6432 303.094 72.4001 301.489 77.0997C298.395 86.2124 293.867 92.2875 287.906 95.325C281.946 98.4199 274.897 98.7638 266.701 96.4713C263.148 95.497 259.938 94.2934 257.072 92.9752Z" fill="#393842"/>
<path d="M175.46 50.1621C175.517 55.2629 170.302 57.9565 164.743 57.498C159.183 57.0395 154.197 53.4289 155.458 48.5C156.833 43.17 160.845 37.7253 166.405 38.1838C171.907 38.6996 175.403 45.1186 175.46 50.1621Z" fill="white"/>
<path d="M155.881 42.7679C156.821 41.8279 156.603 40.0861 155.394 38.8775C154.186 37.6689 152.444 37.4512 151.504 38.3912C150.564 39.3312 150.782 41.073 151.99 42.2816C153.199 43.4902 154.941 43.708 155.881 42.7679Z" fill="white"/>
<path d="M159.886 38.1753C161.213 38.0922 162.202 36.642 162.095 34.9362C161.988 33.2304 160.826 31.9149 159.499 31.998C158.173 32.0811 157.184 33.5313 157.29 35.2371C157.397 36.9429 158.559 38.2584 159.886 38.1753Z" fill="white"/>
<path d="M170.845 34.3723C171.145 32.6895 170.326 31.1365 169.018 30.9036C167.709 30.6707 166.405 31.846 166.106 33.5288C165.806 35.2115 166.624 36.7645 167.933 36.9974C169.242 37.2303 170.546 36.055 170.845 34.3723Z" fill="white"/>
<path d="M179.421 42.4327C180.06 40.8472 179.578 39.1593 178.345 38.6626C177.111 38.1659 175.594 39.0486 174.955 40.6341C174.317 42.2196 174.799 43.9075 176.032 44.4042C177.265 44.9008 178.783 44.0182 179.421 42.4327Z" fill="white"/>
<path d="M21.6339 36.1223C18.4244 44.0314 11.7188 48.731 6.56073 46.6678C1.45994 44.6045 -0.0874882 36.5235 3.06469 28.6144C6.21686 20.7053 18.6536 9.98792 23.7544 12.0512C28.8552 14.1144 24.8433 28.2132 21.6339 36.1223Z" fill="#393842" stroke="#F4F4F4" stroke-width="2.86561" stroke-miterlimit="10"/>
<path d="M64.1021 18.755C70.2918 22.251 77.112 21.8498 79.4045 17.8953C81.697 13.8834 78.5448 7.80835 72.3551 4.3123C66.1654 0.816251 52.525 0.185817 50.2899 4.19767C47.9974 8.15222 57.9124 15.2589 64.1021 18.755Z" fill="#393842" stroke="#F4F4F4" stroke-width="2.86561" stroke-miterlimit="10"/>
</svg>
