<svg width="225" height="199" viewBox="0 0 225 199" fill="none" xmlns="http://www.w3.org/2000/svg">
<g clip-path="url(#clip0_70_391)">
<path d="M167.539 119.981H3.77733C1.69253 119.981 0 118.289 0 116.204V3.77733C0 1.69254 1.69253 0 3.77733 0H167.539C198.869 0 224.272 25.4026 224.272 56.7326V63.2485C224.272 94.5858 198.869 119.981 167.539 119.981Z" fill="#FF6842"/>
<path d="M166.522 199H4.7943C2.14291 199 0 196.85 0 194.206V83.806C0 81.1546 2.15017 79.0117 4.7943 79.0117H166.522C198.419 79.0117 224.272 104.865 224.272 136.761V141.243C224.272 173.14 198.419 199 166.522 199Z" fill="#FF6842"/>
<path d="M215.94 48.0877C215.511 36.8937 208.697 33.3561 202.712 32.9493C199.051 32.7023 195.745 34.3004 192.353 35.608C187.326 37.5475 177.498 39.9664 157.268 43.8019C128.836 49.1918 126.322 62.4052 126.228 66.3642H82.9776C80.2536 61.272 74.3914 57.7417 67.585 57.7417C67.0256 57.7417 66.4736 57.7707 65.9288 57.8143C59.7397 57.2622 49.8606 59.6449 36.5455 73.0326C22.0463 87.6262 14.528 94.4109 10.1042 97.4908C7.11861 99.5684 3.9442 101.399 2.09912 104.573C-0.915482 109.76 -1.8017 117.38 7.22031 124.012C25.0174 137.095 41.8047 147.177 51.495 122.828C60.5533 100.077 55.8171 92.188 62.8778 87.125C63.0522 87.1685 63.2265 87.2049 63.4009 87.2412V93.0379V103.767V113.152L55.8099 198.999H153.527L142.638 145.877C142.725 145.884 142.812 145.892 142.906 145.892C146.982 145.892 151.238 145.477 155.088 144.925C165.026 143.509 174.135 138.736 180.556 131.407C184.697 126.678 188.743 120.612 190.566 113.646C194.293 99.4085 186.208 97.0405 183.411 96.6482C182.329 96.4956 181.254 96.3504 180.178 96.1542L152.655 91.2582L151.362 74.776C151.725 74.638 152.074 74.4854 152.415 74.3038C161.902 69.3061 164.553 78.4662 190.145 84.0886C215.736 89.711 216.797 70.1633 215.94 48.0877Z" fill="#FFEFE8"/>
<path d="M174.411 117.744C169.326 118.674 162.883 115.034 162.106 111.453C161.067 106.652 166.951 102.918 171.6 102.664C176.765 102.38 181.734 103.288 182.01 107.516C182.242 111.177 179.503 116.814 174.411 117.744Z" fill="#383842"/>
<path d="M187.239 117.743C187.239 117.743 182.242 124.615 174.106 116.828" stroke="#383842" stroke-width="4.35846" stroke-miterlimit="10" stroke-linecap="round" stroke-linejoin="round"/>
<path d="M161.386 122.139C161.386 122.139 171.258 129.57 174.033 116.851" stroke="#383842" stroke-width="4.35846" stroke-miterlimit="10" stroke-linecap="round" stroke-linejoin="round"/>
<path d="M101.632 104.566C104.725 104.566 107.232 101.343 107.232 97.3677C107.232 93.3919 104.725 90.1689 101.632 90.1689C98.5387 90.1689 96.0312 93.3919 96.0312 97.3677C96.0312 101.343 98.5387 104.566 101.632 104.566Z" fill="#383842"/>
<path d="M128.146 104.566C131.239 104.566 133.747 101.343 133.747 97.3677C133.747 93.3919 131.239 90.1689 128.146 90.1689C125.053 90.1689 122.545 93.3919 122.545 97.3677C122.545 101.343 125.053 104.566 128.146 104.566Z" fill="#383842"/>
</g>
<defs>
<clipPath id="clip0_70_391">
<rect width="224.272" height="199" fill="white"/>
</clipPath>
</defs>
</svg>
