<svg width="200" height="200" viewBox="0 0 200 200" fill="none" xmlns="http://www.w3.org/2000/svg">
  <!-- Background Circle -->
  <circle cx="100" cy="100" r="90" fill="#F0FDF4" stroke="#10B981" stroke-width="3"/>
  
  <!-- Brain Shape -->
  <path d="M60 80 Q50 100 60 120 Q70 130 80 125 Q85 135 100 130 Q115 135 120 125 Q130 130 140 120 Q150 100 140 80 Q130 70 120 75 Q115 65 100 70 Q85 65 80 75 Q70 70 60 80 Z" fill="#10B981" opacity="0.3"/>
  
  <!-- Neural Network Nodes -->
  <circle cx="80" cy="90" r="8" fill="#10B981"/>
  <circle cx="120" cy="90" r="8" fill="#10B981"/>
  <circle cx="70" cy="110" r="8" fill="#10B981"/>
  <circle cx="100" cy="110" r="10" fill="#34D399"/>
  <circle cx="130" cy="110" r="8" fill="#10B981"/>
  <circle cx="80" cy="130" r="8" fill="#10B981"/>
  <circle cx="120" cy="130" r="8" fill="#10B981"/>
  
  <!-- Connection Lines -->
  <line x1="80" y1="90" x2="100" y2="110" stroke="#10B981" stroke-width="2"/>
  <line x1="120" y1="90" x2="100" y2="110" stroke="#10B981" stroke-width="2"/>
  <line x1="70" y1="110" x2="100" y2="110" stroke="#10B981" stroke-width="2"/>
  <line x1="130" y1="110" x2="100" y2="110" stroke="#10B981" stroke-width="2"/>
  <line x1="100" y1="110" x2="80" y2="130" stroke="#10B981" stroke-width="2"/>
  <line x1="100" y1="110" x2="120" y2="130" stroke="#10B981" stroke-width="2"/>
  
  <!-- Nose Pattern Visualization -->
  <ellipse cx="100" cy="150" rx="15" ry="10" fill="#F59E0B" opacity="0.5"/>
  <circle cx="95" cy="148" r="2" fill="#F59E0B"/>
  <circle cx="100" cy="150" r="2" fill="#F59E0B"/>
  <circle cx="105" cy="148" r="2" fill="#F59E0B"/>
  <circle cx="98" cy="152" r="1.5" fill="#F59E0B"/>
  <circle cx="102" cy="152" r="1.5" fill="#F59E0B"/>
</svg>

